<svg width="115" height="72" viewBox="0 0 115 72" fill="none" xmlns="http://www.w3.org/2000/svg">
<path d="M91.6171 59.7965C92.125 59.142 92.0062 58.1997 91.3518 57.6918L80.687 49.4146C80.0326 48.9066 79.0903 49.0254 78.5823 49.6799C78.0744 50.3343 78.1932 51.2766 78.8476 51.7845L88.3274 59.1421L80.9699 68.6219C80.462 69.2763 80.5807 70.2186 81.2352 70.7265C81.8896 71.2345 82.8319 71.1157 83.3398 70.4612L91.6171 59.7965ZM62.3166 41.7955C62.0943 40.9975 61.2671 40.5307 60.4691 40.7531C59.6711 40.9754 59.2043 41.8026 59.4267 42.6006L62.3166 41.7955ZM90.2445 57.3885C86.4291 57.8695 80.4013 57.6491 74.8457 55.4368C69.3407 53.2446 64.3608 49.1331 62.3166 41.7955L59.4267 42.6006C61.7758 51.033 67.5647 55.7665 73.7358 58.2239C79.8564 60.6613 86.4122 60.8953 90.6197 60.365L90.2445 57.3885Z" fill="#000066"/>
<path d="M9.72084 46.1267C8.97254 46.3218 8.22284 46.3795 7.47175 46.2998C6.73356 46.2167 6.08262 45.9662 5.51891 45.5483C4.95521 45.1303 4.57074 44.5278 4.36551 43.7408C4.18383 43.0441 4.19735 42.4619 4.40606 41.9941C4.6114 41.5134 4.92612 41.135 5.35022 40.8591C5.77431 40.5831 6.20569 40.388 6.64435 40.2736C6.34589 40.8199 6.14755 41.3539 6.04933 41.8756C5.96402 42.3939 5.97688 42.8659 6.08791 43.2917C6.2023 43.7303 6.41963 44.1146 6.7399 44.4444C7.0697 44.758 7.49066 44.9721 8.00279 45.0866C8.51828 45.2139 9.11147 45.1901 9.78237 45.0152C10.363 44.8638 10.899 44.6207 11.3904 44.2858C11.8947 43.9476 12.2705 43.5396 12.518 43.0617C12.7783 42.5804 12.8327 42.0495 12.6813 41.4689C12.5434 40.94 12.2708 40.5288 11.8636 40.2354C11.4659 39.9257 10.9897 39.6847 10.435 39.5125C9.87684 39.3273 9.29797 39.1682 8.69834 39.0352C8.09535 38.8893 7.51311 38.7173 6.95163 38.5193C6.39015 38.3212 5.89907 38.0497 5.4784 37.7047C5.07063 37.3563 4.78936 36.8854 4.6346 36.2919C4.49665 35.7629 4.47932 35.168 4.58259 34.5072C4.6954 33.8302 4.92797 33.1633 5.2803 32.5064C5.63263 31.8496 6.11509 31.2691 6.72768 30.7649C7.3369 30.2477 8.06728 29.8781 8.9188 29.6561C9.80903 29.4239 10.4836 29.4478 10.9424 29.7278C11.4012 30.0077 11.7097 30.4509 11.8678 31.0573C11.9923 31.5347 12.0413 32.0662 12.0149 32.6518C11.9885 33.2374 11.9166 33.8073 11.7993 34.3615C11.695 34.9123 11.5785 35.3905 11.45 35.7961C11.1494 35.8056 10.9079 35.7514 10.7256 35.6336C10.5399 35.5029 10.4118 35.3021 10.3411 35.0311C10.2705 34.7602 10.243 34.4435 10.2588 34.0812C10.2874 33.7154 10.3256 33.3334 10.3733 32.9352C10.4339 32.5336 10.4721 32.1516 10.4878 31.7892C10.5131 31.4106 10.4921 31.0922 10.4248 30.8342C10.3642 30.602 10.2462 30.4398 10.0706 30.3478C9.90796 30.2525 9.6202 30.2586 9.20734 30.3663C8.58805 30.5278 8.05569 30.8113 7.61027 31.2168C7.16485 31.6223 6.80244 32.082 6.52305 32.5957C6.25656 33.1062 6.08066 33.6205 5.99535 34.1388C5.90667 34.6442 5.91112 35.084 6.00869 35.4582C6.12981 35.9226 6.38248 36.2839 6.7667 36.542C7.14755 36.7871 7.60554 36.9846 8.14066 37.1344C8.68868 37.2809 9.25606 37.4223 9.84279 37.5587C10.4424 37.6917 11.0182 37.8653 11.5701 38.0796C12.135 38.2906 12.6263 38.5896 13.0442 38.9767C13.4621 39.3638 13.7585 39.8928 13.9334 40.5637C14.1084 41.2346 14.1083 41.8685 13.9333 42.4653C13.7711 43.0587 13.4774 43.5969 13.0522 44.0799C12.6303 44.5757 12.1268 44.9963 11.5417 45.3418C10.9729 45.6968 10.3659 45.9585 9.72084 46.1267ZM17.074 43.3824C16.6482 43.4935 16.2435 43.4474 15.8598 43.2443C15.4633 43.0446 15.191 42.6609 15.0429 42.0932C14.9252 41.6417 14.9006 41.1245 14.969 40.5417C15.0375 39.9589 15.1851 39.3623 15.4118 38.752C15.6385 38.1418 15.9302 37.5696 16.287 37.0356C16.6404 36.4888 17.048 36.0173 17.5097 35.6213C17.9714 35.2254 18.4667 34.9584 18.9957 34.8205C19.5505 34.6758 20.0584 34.6949 20.5195 34.8778C20.9805 35.0607 21.2716 35.3844 21.3928 35.8489C21.4836 36.1972 21.4266 36.4808 21.2219 36.6995C21.0171 36.9183 20.7386 37.0391 20.3863 37.0621C20.3819 36.9393 20.3709 36.8181 20.3535 36.6986C20.3491 36.5758 20.33 36.4498 20.2964 36.3208C20.2291 36.0628 20.1169 35.844 19.9599 35.6645C19.8028 35.485 19.5566 35.439 19.2211 35.5264C18.8599 35.6206 18.5241 35.8391 18.2139 36.1818C17.9037 36.5245 17.6265 36.9412 17.3825 37.432C17.148 37.9066 16.9575 38.4179 16.811 38.9659C16.6612 39.501 16.5678 40.0145 16.5307 40.5065C16.4936 40.9984 16.5222 41.425 16.6164 41.7863C16.7241 42.1991 16.9263 42.3669 17.223 42.2895C17.5198 42.2121 17.8117 41.9844 18.099 41.6063C18.3828 41.2154 18.6482 40.7535 18.8951 40.2206C19.1548 39.6844 19.3936 39.1467 19.6113 38.6077C19.8256 38.0557 20.0133 37.5865 20.1743 37.2001C20.1962 37.1255 20.2394 37.0798 20.3039 37.0629C20.3588 37.0624 20.464 37.0694 20.6194 37.084C20.7843 37.0823 20.9431 37.1098 21.0956 37.1665C21.2482 37.2232 21.343 37.3225 21.38 37.4644C21.4136 37.5934 21.3993 37.7763 21.337 38.013C21.2843 38.2334 21.2125 38.4864 21.1216 38.7719C21.0402 39.0411 20.9734 39.3135 20.9212 39.5889C20.8786 39.848 20.8859 40.0873 20.943 40.3066C20.9868 40.4743 21.074 40.6238 21.2047 40.7551C21.332 40.8735 21.4989 40.9057 21.7053 40.8519C22.015 40.7712 22.3883 40.4327 22.8253 39.8364C23.2719 39.2239 23.6425 38.2937 23.9371 37.0456L24.4007 37.3174C24.2727 38.0949 24.06 38.8117 23.7627 39.468C23.4749 40.108 23.131 40.6386 22.731 41.0598C22.3343 41.494 21.8909 41.775 21.4006 41.9028C20.8716 42.0407 20.4344 41.9756 20.0889 41.7075C19.7434 41.4393 19.5073 41.1151 19.3805 40.7347C19.3738 40.7089 19.3687 40.6896 19.3654 40.6767C19.362 40.6638 19.3586 40.6509 19.3553 40.638C19.0007 41.3918 18.6512 42.0066 18.3067 42.4822C17.9752 42.9545 17.5643 43.2546 17.074 43.3824ZM25.9811 40.8944C25.5037 41.0188 25.1111 40.887 24.8032 40.4988C24.5115 40.1201 24.2765 39.5889 24.0982 38.9051C24.0612 38.7632 24.0021 38.5099 23.9207 38.1453C23.8361 37.7678 23.7209 37.2467 23.5751 36.5819C23.487 36.1915 23.4568 35.9169 23.4843 35.7582C23.5247 35.5961 23.7126 35.4713 24.0481 35.3838C24.3577 35.3031 24.5551 35.3205 24.6404 35.436C24.7352 35.5353 24.8314 35.7721 24.9289 36.1462C25.0299 36.5333 25.1182 36.9512 25.1939 37.3999C25.2825 37.8453 25.3806 38.2744 25.4882 38.6873C25.5925 39.0873 25.6893 39.379 25.7784 39.5624C25.8643 39.7329 25.9846 39.798 26.1394 39.7576C26.3716 39.6971 26.5912 39.5089 26.7983 39.1931C27.0019 38.8644 27.1887 38.4712 27.3587 38.0135C27.5383 37.5395 27.6918 37.0448 27.8191 36.5293C27.956 35.9976 28.0658 35.4936 28.1483 35.0173C27.9453 34.1333 27.8954 33.5193 27.9987 33.1755C28.1019 32.8316 28.2954 32.6227 28.5793 32.5487C28.9018 32.4646 29.1481 32.5106 29.318 32.6867C29.488 32.8629 29.5931 33.0284 29.6335 33.1832C29.684 33.3767 29.6778 33.5644 29.6149 33.7461C29.5521 33.9278 29.5044 34.1676 29.4718 34.4655C29.4393 34.7633 29.4953 35.1897 29.64 35.7444C29.6871 35.9251 29.7522 36.1217 29.8352 36.3343C29.9277 36.5306 30.0522 36.6911 30.2087 36.8156C30.3747 36.9239 30.5803 36.9461 30.8254 36.8821C31.0835 36.8148 31.3017 36.6477 31.4801 36.3807C31.668 36.0975 31.8285 35.656 31.9615 35.0564L32.2198 35.175C32.1081 35.962 31.9022 36.5462 31.6021 36.9276C31.3148 37.3057 31.0035 37.5384 30.668 37.6259C30.2423 37.7369 29.8502 37.6601 29.4918 37.3953C29.1429 37.1142 28.8302 36.7341 28.5537 36.2551C28.3955 36.9164 28.1904 37.5831 27.9385 38.255C27.6994 38.9237 27.4158 39.5006 27.0876 39.9857C26.7628 40.4838 26.394 40.7867 25.9811 40.8944ZM34.7568 38.7092C33.9311 38.9246 33.2336 38.8653 32.6643 38.5315C32.1112 38.2072 31.7472 37.7097 31.5723 37.0388C31.4242 36.4711 31.4097 35.8341 31.5287 35.1279C31.6572 34.4054 31.8943 33.7029 32.2399 33.0203C32.5821 32.3247 33.0045 31.7254 33.5072 31.2223C34.0098 30.7192 34.5579 30.3902 35.1514 30.2355C35.4868 30.148 35.8265 30.1559 36.1703 30.2591C36.5237 30.3461 36.7677 30.6476 36.9023 31.1637C37.0301 31.654 37.0076 32.149 36.8348 32.6488C36.662 33.1486 36.3806 33.6284 35.9908 34.0883C35.6009 34.5483 35.1442 34.9636 34.6208 35.3343C34.107 35.6888 33.5682 35.974 33.0044 36.1899C33.005 36.2449 33.0072 36.3063 33.0111 36.3742C33.0246 36.4258 33.0481 36.5161 33.0818 36.6451C33.0986 36.7096 33.1353 36.8241 33.192 36.9884C33.2581 37.1365 33.3599 37.2891 33.4974 37.4462C33.6348 37.6032 33.8235 37.7194 34.0636 37.7946C34.3037 37.8698 34.6043 37.8602 34.9656 37.766C35.5075 37.6247 36.0106 37.3351 36.4751 36.897C36.9492 36.4427 37.3593 35.9017 37.7054 35.274C38.0645 34.643 38.3245 33.9758 38.4856 33.2724L38.9534 33.4811C38.8069 34.3461 38.532 35.1412 38.1286 35.8664C37.7381 36.5883 37.2495 37.198 36.6627 37.6955C36.0888 38.1896 35.4535 38.5276 34.7568 38.7092ZM33.0306 35.4183C33.3559 35.2922 33.6998 35.0785 34.0622 34.7773C34.4246 34.4761 34.7542 34.1283 35.0509 33.734C35.3606 33.3364 35.5926 32.9314 35.7469 32.5191C35.8978 32.0939 35.9262 31.7007 35.832 31.3395C35.795 31.1975 35.7439 31.1075 35.6789 31.0694C35.6138 31.0312 35.5232 31.0273 35.4071 31.0575C35.1103 31.1349 34.8293 31.3253 34.5639 31.6288C34.2952 31.9193 34.0515 32.2791 33.8327 32.7082C33.6105 33.1244 33.4307 33.5709 33.2932 34.0477C33.1557 34.5245 33.0682 34.9814 33.0306 35.4183ZM45.5351 35.6092C45.0964 35.7236 44.683 35.6178 44.2949 35.2919C43.9163 34.9497 43.658 34.5141 43.5201 33.9851C43.4259 33.6239 43.3729 33.1829 43.3612 32.6624C43.3494 32.1418 43.3733 31.6258 43.4328 31.1142C43.5052 30.5993 43.5978 30.1618 43.7106 29.8016C43.8363 29.4382 43.983 29.2346 44.1507 29.1908C44.241 29.1673 44.39 29.1836 44.5975 29.2397C44.8146 29.2795 45.0126 29.3519 45.1915 29.4568C45.1034 29.7002 45.0117 30.0618 44.9163 30.5414C44.8338 31.0176 44.779 31.521 44.7521 32.0517C44.7251 32.5823 44.7637 33.0476 44.868 33.4476C44.8815 33.4992 44.9199 33.6201 44.9833 33.8102C45.0596 33.997 45.1583 34.1642 45.2794 34.3117C45.4006 34.4593 45.5579 34.5078 45.7514 34.4573C45.9708 34.4001 46.1727 34.2235 46.3573 33.9273C46.5514 33.6149 46.7287 33.2379 46.8892 32.7965C47.0592 32.3388 47.2095 31.8586 47.3403 31.3561C47.4839 30.8501 47.5987 30.3655 47.6846 29.9021C47.7833 29.4354 47.8602 29.0434 47.9152 28.7259C48.0347 28.7085 48.1915 28.7021 48.3856 28.7066C48.5925 28.7077 48.7788 28.7349 48.9442 28.7882C49.1063 28.8286 49.2076 28.9262 49.248 29.0811C49.2581 29.1198 49.2356 29.2979 49.1806 29.6154C49.1351 29.9166 49.079 30.2826 49.0122 30.7134C48.9583 31.1408 48.9207 31.5778 48.8994 32.0243C48.8875 32.4545 48.922 32.8245 49.0027 33.1341C49.0498 33.3147 49.1242 33.4676 49.2257 33.5927C49.3367 33.7015 49.4955 33.729 49.7019 33.6752C49.9728 33.6045 50.2634 33.3979 50.5737 33.0551C50.8839 32.7124 51.1784 32.2567 51.4573 31.6879C51.7361 31.1192 51.9462 30.4719 52.0876 29.746L52.4385 29.9026C52.3363 30.6733 52.1318 31.3949 51.8249 32.0675C51.518 32.74 51.1469 33.2984 50.7116 33.7426C50.2796 34.1997 49.8185 34.4922 49.3282 34.6201C48.9541 34.7176 48.6467 34.7013 48.4061 34.5712C48.1817 34.4505 48.0019 34.2632 47.8668 34.0091C47.7282 33.742 47.6155 33.4683 47.5286 33.1878C47.5118 33.1233 47.495 33.0588 47.4781 32.9943C47.4579 32.9169 47.4411 32.8524 47.4277 32.8008C47.2992 33.2063 47.1496 33.6104 46.9791 34.0132C46.8052 34.403 46.5984 34.7463 46.3589 35.043C46.1322 35.3364 45.8576 35.5251 45.5351 35.6092ZM52.7846 38.8859C52.6814 38.9128 52.5633 38.9092 52.4304 38.875C52.3008 38.8536 52.1872 38.8144 52.0896 38.7571C51.9791 38.7033 51.9107 38.6522 51.8844 38.604C51.9613 37.578 52.025 36.6864 52.0756 35.9292C52.1166 35.1882 52.1338 34.4878 52.1271 33.8282C52.1238 33.1814 52.1009 32.5122 52.0583 31.8206C51.9995 31.1194 51.9171 30.3279 51.8111 29.4461C51.7147 28.548 51.5858 27.4724 51.4244 26.2193C51.4098 26.0577 51.4135 25.9396 51.4354 25.865C51.4539 25.7775 51.5664 25.7069 51.7728 25.653C52.1727 25.5487 52.4916 25.5827 52.7295 25.7549C52.9639 25.9143 53.1148 26.1229 53.1821 26.381C53.2157 26.51 53.2488 26.7425 53.2813 27.0785C53.3267 27.4112 53.3614 27.8086 53.3855 28.2708C53.5331 27.8327 53.718 27.4056 53.9401 26.9894C54.1752 26.5698 54.4593 26.2064 54.7926 25.899C55.1224 25.5787 55.5131 25.3597 55.9647 25.242C56.5969 25.0771 57.1749 25.1537 57.6988 25.4718C58.2227 25.7899 58.5755 26.2973 58.7572 26.994C58.8884 27.4972 58.9119 28.0629 58.8277 28.6912C58.753 29.3031 58.5749 29.9145 58.2932 30.5254C58.0082 31.1233 57.6158 31.6528 57.116 32.1138C56.6195 32.5878 56.0229 32.9156 55.3262 33.0973C54.9133 33.2049 54.5709 33.2391 54.2988 33.1998C54.0268 33.1606 53.8739 33.0764 53.8403 32.9474C53.8167 32.8571 53.8484 32.7937 53.9354 32.7572C54.0319 32.7045 54.1382 32.663 54.2543 32.6327C54.8573 32.4617 55.372 32.1897 55.7984 31.8167C56.2376 31.4404 56.5874 31.0116 56.8477 30.5303C57.1047 30.0361 57.271 29.538 57.3468 29.036C57.4226 28.534 57.4033 28.0636 57.2889 27.625C57.1879 27.2379 57.0101 26.926 56.7555 26.6893C56.5138 26.4492 56.2058 26.3779 55.8317 26.4755C55.5091 26.5596 55.207 26.7486 54.9254 27.0425C54.6567 27.333 54.4225 27.6766 54.2227 28.0731C54.0196 28.4568 53.8539 28.8514 53.7254 29.257C53.5935 29.6496 53.5032 29.9901 53.4543 30.2784C53.4313 31.1939 53.4258 32.0978 53.4381 32.9903C53.4666 33.8922 53.4848 34.728 53.4926 35.4976C53.5003 36.2673 53.4795 36.9272 53.4301 37.4775C53.3678 38.0311 53.2505 38.4268 53.0783 38.6647C52.9986 38.7819 52.9007 38.8556 52.7846 38.8859ZM62.4429 31.5308C61.8753 31.6788 61.3735 31.6305 60.9377 31.3859C60.5019 31.1413 60.1948 30.6771 60.0165 29.9933C59.8785 29.4644 59.8037 28.7811 59.792 27.9436C59.7932 27.1028 59.8393 26.2227 59.9302 25.3033C59.8332 25.3011 59.7185 25.3103 59.5861 25.3311C59.4632 25.3355 59.337 25.3271 59.2075 25.3058L59.051 24.7058C59.2642 24.6778 59.4369 24.6534 59.5693 24.6327C59.7146 24.6086 59.8599 24.5845 60.0052 24.5604C60.0978 23.8059 60.2165 23.0722 60.3613 22.3593C60.5156 21.6301 60.682 20.9735 60.8604 20.3896C61.0518 19.8023 61.2523 19.3297 61.4622 18.9719C61.6686 18.6011 61.8815 18.3871 62.1009 18.3299C62.2299 18.2963 62.3659 18.3159 62.5089 18.3889C62.6486 18.4489 62.742 18.5692 62.7891 18.7499C62.8564 19.0079 62.8168 19.4109 62.6703 19.959C62.5368 20.5036 62.3606 21.149 62.1418 21.895C61.9196 22.6281 61.722 23.403 61.5492 24.2197C61.6524 24.1928 61.7556 24.1659 61.8588 24.139C61.9621 24.1121 62.0588 24.0868 62.1491 24.0633C62.7168 23.9153 63.2248 23.7759 63.673 23.6453C64.1307 23.4983 64.5915 23.3368 65.0554 23.1607L65.222 23.7994C64.5292 24.0489 63.8911 24.2704 63.3077 24.4639C62.7243 24.6574 62.1634 24.8312 61.6249 24.9854C61.5861 24.9955 61.5474 25.0056 61.5087 25.0157C61.47 25.0258 61.4313 25.0359 61.3926 25.046C61.2865 25.7488 61.2178 26.4626 61.1863 27.1873C61.1643 27.8958 61.2358 28.5661 61.4007 29.1983C61.5386 29.7273 61.72 30.0796 61.9449 30.2552C62.1699 30.4308 62.463 30.4715 62.8242 30.3773C63.4693 30.209 64.0516 29.7472 64.5711 28.9916C65.1001 28.2198 65.485 27.2651 65.7258 26.1276L66.0472 26.2505C65.9102 27.0991 65.6709 27.8987 65.3292 28.6492C65.0005 29.3964 64.5912 30.0198 64.1014 30.5196C63.6151 31.0322 63.0622 31.3693 62.4429 31.5308ZM67.4637 29.9321C66.8832 30.0835 66.4327 29.9943 66.1125 29.6645C65.8085 29.3441 65.5976 28.9582 65.4798 28.5066C65.3722 28.0938 65.3273 27.6576 65.3453 27.1982C65.36 26.7259 65.4282 26.2741 65.5499 25.8427C65.6846 25.408 65.8588 25.0457 66.0725 24.7557C66.2958 24.4494 66.5494 24.2593 66.8332 24.1853C66.9235 24.1617 67.0318 24.1542 67.158 24.1626C67.2937 24.1548 67.3958 24.1764 67.4643 24.2274C67.3599 24.4613 67.2609 24.7421 67.1672 25.0696C67.0864 25.3938 67.0171 25.7357 66.9592 26.0953C66.911 26.4386 66.8902 26.7816 66.8969 27.1243C66.9036 27.4671 66.9423 27.7739 67.0129 28.0448C67.0802 28.3029 67.1809 28.504 67.3149 28.6481C67.4619 28.789 67.6579 28.8274 67.9031 28.7635C68.1482 28.6996 68.4032 28.4884 68.668 28.13C68.9423 27.7553 69.1872 27.3469 69.4026 26.9049C68.8922 26.6385 68.4895 26.3094 68.1944 25.9179C67.8961 25.5134 67.6644 24.9951 67.4996 24.3629C67.4289 24.0919 67.4127 23.7655 67.4509 23.3835C67.502 22.9981 67.6422 22.6377 67.8717 22.3023C68.114 21.9635 68.4932 21.7268 69.0093 21.5923C69.5641 21.4476 69.9915 21.5015 70.2916 21.7539C70.6046 22.003 70.8166 22.3404 70.9276 22.7662C71.0521 23.2436 71.0627 23.8126 70.9594 24.4734C70.8691 25.1308 70.7187 25.7694 70.5083 26.3893C70.6833 26.4263 70.874 26.4179 71.0804 26.3641C71.274 26.3136 71.4944 26.2079 71.7418 26.0469C71.9892 25.886 72.215 25.6686 72.4192 25.3949C72.62 25.1083 72.7508 24.7642 72.8114 24.3625L73.2253 24.5233C73.1131 25.2553 72.8587 25.8384 72.462 26.2725C72.0749 26.6903 71.6556 26.9582 71.2041 27.0759C71.0363 27.1197 70.8652 27.1505 70.6908 27.1684C70.513 27.1735 70.3464 27.1687 70.191 27.1541C69.8869 27.7845 69.5015 28.3673 69.0347 28.9024C68.568 29.4375 68.0443 29.7807 67.4637 29.9321ZM69.7443 26.1544C69.9362 25.6221 70.0745 25.0693 70.1593 24.4961C70.244 23.9228 70.2292 23.4168 70.1148 22.9782C70.0374 22.6814 69.9368 22.4803 69.8128 22.3749C69.6855 22.2565 69.5315 22.2208 69.3509 22.268C69.1057 22.3319 68.8996 22.5717 68.7324 22.9873C68.5652 23.4029 68.5505 23.8752 68.6885 24.4042C68.7591 24.6752 68.8901 24.9924 69.0813 25.3559C69.2855 25.716 69.5065 25.9822 69.7443 26.1544ZM80.0852 27.7776C79.6337 27.8954 79.2214 27.8995 78.8484 27.7901C78.4787 27.6936 78.113 27.5065 77.7512 27.2288C77.9739 27.1845 78.1579 27.1503 78.3032 27.1262C78.4356 27.1054 78.5921 27.0715 78.7727 27.0244C79.0565 26.9504 79.374 26.8469 79.7252 26.714C80.0764 26.5811 80.4129 26.4451 80.7349 26.306C80.8197 25.7328 80.866 25.0386 80.8739 24.2236C80.8819 23.4085 80.8634 22.5452 80.8186 21.6337C80.7705 20.7093 80.7094 19.7882 80.6355 18.8705C80.5615 17.9528 80.4962 17.0949 80.4397 16.2966C80.3831 15.4984 80.3439 14.8197 80.322 14.2604C79.756 14.8903 79.3431 15.3149 79.0834 15.5342C78.8365 15.7501 78.6228 15.8817 78.4422 15.9288C78.2745 15.9725 78.1255 15.9562 77.9954 15.8799C77.8619 15.7907 77.7548 15.5913 77.674 15.2817C77.8984 15.0853 78.2073 14.7637 78.6005 14.3166C79.0033 13.8533 79.4361 13.3202 79.899 12.7173C80.3584 12.1014 80.787 11.4729 81.1848 10.8318C81.2953 10.8856 81.3884 10.9785 81.4641 11.1103C81.5365 11.2292 81.5928 11.3661 81.6332 11.5209C81.7106 11.8177 81.7333 12.1425 81.7013 12.4953C81.6822 12.8447 81.6992 13.2537 81.7525 13.7221C81.8455 14.6072 81.9327 15.549 82.0139 16.5475C82.1047 17.5297 82.1699 18.5462 82.2097 19.5968C82.2623 20.6441 82.2681 21.6967 82.2271 22.7546C82.1956 23.7963 82.1023 24.8127 81.9474 25.8038C82.0602 25.7606 82.1665 25.7191 82.2663 25.6793C82.3696 25.6524 82.4857 25.6221 82.6147 25.5885C83.105 25.4606 83.559 25.4318 83.9769 25.502C84.4111 25.5816 84.7667 25.8885 85.0438 26.4225C84.7111 26.468 84.3866 26.5181 84.0702 26.5731C83.7701 26.6376 83.4911 26.7034 83.233 26.7707C82.8589 26.8683 82.4687 26.9838 82.0626 27.1173C81.6565 27.2507 81.2761 27.3775 80.9216 27.4975C80.5704 27.6304 80.2917 27.7238 80.0852 27.7776ZM91.308 24.851C90.392 25.0899 89.5685 25.0497 88.8377 24.7305C88.1231 24.4208 87.5148 23.9111 87.0128 23.2015C86.5075 22.4789 86.1269 21.6274 85.8712 20.6468C85.6526 19.8082 85.5236 18.8911 85.4845 17.8954C85.4548 16.8835 85.5222 15.8738 85.6867 14.8664C85.864 13.8556 86.1471 12.9068 86.5359 12.02C86.9343 11.1169 87.4504 10.3485 88.0843 9.71465C88.7182 9.08085 89.4867 8.64619 90.3899 8.41068C91.2285 8.19199 92.0177 8.20665 92.7576 8.45465C93.4974 8.70265 94.1458 9.18119 94.7028 9.89026C95.2597 10.5993 95.6896 11.5345 95.9924 12.6956C96.238 13.6375 96.3644 14.6242 96.3716 15.6557C96.3917 16.6839 96.2968 17.6939 96.0869 18.6856C95.8771 19.6773 95.5598 20.6006 95.1351 21.4554C94.7104 22.3103 94.176 23.0352 93.532 23.6303C92.9009 24.2221 92.1596 24.6289 91.308 24.851ZM91.3367 23.8514C91.9173 23.7 92.4166 23.3425 92.8345 22.7788C93.2654 22.2117 93.6076 21.5162 93.8612 20.6922C94.1115 19.8553 94.2835 18.9561 94.3773 17.9947C94.4806 17.017 94.5031 16.0465 94.4448 15.0834C94.3866 14.1203 94.2498 13.2258 94.0345 12.4001C93.8427 11.6647 93.5889 11.035 93.2732 10.5111C92.967 9.97088 92.5895 9.58015 92.1408 9.33891C91.7049 9.0943 91.1903 9.04938 90.5968 9.20414C90.0162 9.35554 89.5228 9.65644 89.1167 10.1068C88.7234 10.5539 88.3991 11.1069 88.1439 11.766C87.8981 12.4088 87.7177 13.1173 87.6026 13.8913C87.4842 14.6525 87.4258 15.4325 87.4274 16.2313C87.4257 17.0172 87.4657 17.7784 87.5475 18.5149C87.626 19.2385 87.7409 19.8906 87.8923 20.4712C88.2086 21.6839 88.6755 22.6025 89.293 23.2269C89.9072 23.8384 90.5884 24.0466 91.3367 23.8514ZM100.504 22.453C100.745 22.0593 101.016 21.4583 101.315 20.65C101.63 19.8512 101.954 18.9263 102.286 17.8751C102.631 16.8206 102.963 15.7144 103.281 14.5567C103.609 13.3827 103.907 12.23 104.177 11.0986C104.46 9.96385 104.703 8.91519 104.907 7.95264C105.108 6.97719 105.242 6.17058 105.31 5.5328C105.324 5.37742 105.41 5.20354 105.566 5.01115C105.723 4.81876 105.917 4.63731 106.148 4.46681C106.379 4.29631 106.611 4.18077 106.843 4.12021C106.845 4.3401 106.789 4.76108 106.676 5.38315C106.576 6.00186 106.438 6.7406 106.262 7.59938C106.083 8.44525 105.879 9.35283 105.649 10.3221C105.42 11.2914 105.188 12.2542 104.956 13.2106C104.723 14.167 104.491 15.0473 104.259 15.8517C104.041 16.6527 103.847 17.3095 103.678 17.8222C103.27 19.0585 102.823 20.0914 102.336 20.921C101.863 21.7472 101.252 22.2579 100.504 22.453ZM100.579 13.6284C99.9729 13.7865 99.4577 13.6866 99.0337 13.3287C98.6192 12.9545 98.3362 12.4771 98.1848 11.8965C98.0705 11.4579 98.0155 10.983 98.0201 10.472C98.0341 9.94475 98.1147 9.43458 98.2617 8.94153C98.4087 8.44848 98.6275 8.01939 98.9181 7.65424C99.2216 7.28573 99.5991 7.0426 100.051 6.92485C100.605 6.78017 101.108 6.85595 101.557 7.15216C102.003 7.43548 102.31 7.89968 102.478 8.54477C102.586 8.95763 102.634 9.43415 102.623 9.97434C102.609 10.5016 102.526 11.0264 102.373 11.5486C102.229 12.0545 102.007 12.4982 101.707 12.8796C101.42 13.2577 101.044 13.5073 100.579 13.6284ZM100.433 12.5918C100.652 12.5346 100.83 12.3711 100.967 12.1013C101.103 11.8315 101.198 11.5103 101.253 11.1379C101.317 10.7492 101.337 10.3512 101.313 9.94393C101.299 9.52042 101.247 9.13449 101.156 8.78614C101.075 8.47649 100.965 8.23668 100.824 8.0667C100.696 7.89336 100.535 7.83193 100.342 7.88239C100.071 7.95305 99.8624 8.13141 99.7165 8.41747C99.5802 8.68727 99.4865 9.01485 99.4354 9.40021C99.3972 9.7822 99.3882 10.1704 99.4084 10.5647C99.4381 10.9428 99.4916 11.2802 99.569 11.5769C99.6565 11.9124 99.774 12.178 99.9215 12.3738C100.082 12.5662 100.252 12.6389 100.433 12.5918ZM108.972 18.4672C108.353 18.6287 107.837 18.5288 107.426 18.1675C107.015 17.8063 106.734 17.3353 106.582 16.7547C106.468 16.3161 106.413 15.8412 106.418 15.3302C106.432 14.803 106.506 14.2945 106.64 13.8048C106.787 13.3117 107.006 12.8826 107.296 12.5175C107.6 12.149 107.984 11.9042 108.448 11.783C109.003 11.6384 109.499 11.7158 109.935 12.0154C110.381 12.2987 110.688 12.7629 110.856 13.408C110.964 13.8209 111.011 14.291 110.997 14.8182C110.983 15.3455 110.905 15.8686 110.765 16.3874C110.621 16.8934 110.4 17.3371 110.099 17.7185C109.812 18.0965 109.436 18.3461 108.972 18.4672ZM108.806 17.4356C109.026 17.3785 109.205 17.2214 109.345 16.9645C109.494 16.6913 109.594 16.3621 109.645 15.9767C109.709 15.588 109.729 15.19 109.706 14.7828C109.695 14.3722 109.645 13.9927 109.554 13.6443C109.473 13.3347 109.362 13.0949 109.221 12.9249C109.077 12.742 108.908 12.6758 108.715 12.7263C108.444 12.7969 108.236 12.9753 108.09 13.2614C107.957 13.5441 107.866 13.8845 107.819 14.2828C107.781 14.6648 107.772 15.053 107.792 15.4473C107.825 15.8383 107.88 16.1821 107.957 16.4789C108.045 16.8143 108.167 17.0718 108.324 17.2513C108.478 17.4179 108.639 17.4794 108.806 17.4356Z" fill="black"/>
</svg>
